<mxfile host="app.diagrams.net" agent="Mozilla/5.0 (Windows NT 10.0; Win64; x64) AppleWebKit/537.36 (KHTML, like Gecko) Chrome/139.0.0.0 Safari/537.36" version="28.1.2">
  <diagram name="Page-1" id="b49rs1CCKQuxUYoasYGA">
    <mxGraphModel dx="1678" dy="1015" grid="1" gridSize="10" guides="1" tooltips="1" connect="1" arrows="1" fold="1" page="1" pageScale="1" pageWidth="827" pageHeight="1169" math="0" shadow="0">
      <root>
        <mxCell id="0" />
        <mxCell id="1" parent="0" />
        <mxCell id="V3oIw_tFHmD7RHKYPGYt-1" value="&lt;span style=&quot;font-size: 16px;&quot;&gt;&lt;b&gt;Snowflake Service&lt;/b&gt;&lt;/span&gt;" style="html=1;whiteSpace=wrap;dashed=1;gradientColor=default;fillColor=none;labelPosition=center;verticalLabelPosition=middle;align=center;verticalAlign=top;" vertex="1" parent="1">
          <mxGeometry x="370" y="90" width="570" height="780" as="geometry" />
        </mxCell>
        <mxCell id="V3oIw_tFHmD7RHKYPGYt-3" style="edgeStyle=orthogonalEdgeStyle;rounded=0;orthogonalLoop=1;jettySize=auto;html=1;exitX=0.5;exitY=1;exitDx=0;exitDy=0;entryX=0.5;entryY=0;entryDx=0;entryDy=0;" edge="1" parent="1" source="V3oIw_tFHmD7RHKYPGYt-4" target="V3oIw_tFHmD7RHKYPGYt-6">
          <mxGeometry relative="1" as="geometry" />
        </mxCell>
        <mxCell id="V3oIw_tFHmD7RHKYPGYt-4" value="Outbound Data Collection&lt;div&gt;(Runs on a configured polling cycle)&lt;/div&gt;" style="whiteSpace=wrap;html=1;align=center;fontSize=14;" vertex="1" parent="1">
          <mxGeometry x="497" y="140" width="330" height="60" as="geometry" />
        </mxCell>
        <mxCell id="V3oIw_tFHmD7RHKYPGYt-5" style="edgeStyle=orthogonalEdgeStyle;rounded=0;orthogonalLoop=1;jettySize=auto;html=1;exitX=0.5;exitY=1;exitDx=0;exitDy=0;entryX=0.5;entryY=0;entryDx=0;entryDy=0;" edge="1" parent="1" source="V3oIw_tFHmD7RHKYPGYt-6" target="V3oIw_tFHmD7RHKYPGYt-12">
          <mxGeometry relative="1" as="geometry" />
        </mxCell>
        <mxCell id="V3oIw_tFHmD7RHKYPGYt-6" value="&lt;font style=&quot;font-size: 14px;&quot;&gt;Retrieves Manifest, Package and then WorkOrder information.&lt;/font&gt;" style="rounded=0;whiteSpace=wrap;html=1;" vertex="1" parent="1">
          <mxGeometry x="497" y="250" width="330" height="80" as="geometry" />
        </mxCell>
        <mxCell id="V3oIw_tFHmD7RHKYPGYt-11" style="edgeStyle=orthogonalEdgeStyle;rounded=0;orthogonalLoop=1;jettySize=auto;html=1;exitX=0.5;exitY=1;exitDx=0;exitDy=0;entryX=0.5;entryY=0;entryDx=0;entryDy=0;" edge="1" parent="1" source="V3oIw_tFHmD7RHKYPGYt-12" target="V3oIw_tFHmD7RHKYPGYt-14">
          <mxGeometry relative="1" as="geometry" />
        </mxCell>
        <mxCell id="V3oIw_tFHmD7RHKYPGYt-23" style="edgeStyle=orthogonalEdgeStyle;rounded=0;orthogonalLoop=1;jettySize=auto;html=1;exitX=1;exitY=0.75;exitDx=0;exitDy=0;entryX=0;entryY=0.5;entryDx=0;entryDy=0;" edge="1" parent="1" source="V3oIw_tFHmD7RHKYPGYt-12" target="V3oIw_tFHmD7RHKYPGYt-22">
          <mxGeometry relative="1" as="geometry" />
        </mxCell>
        <mxCell id="V3oIw_tFHmD7RHKYPGYt-24" style="edgeStyle=orthogonalEdgeStyle;rounded=0;orthogonalLoop=1;jettySize=auto;html=1;exitX=1;exitY=0.25;exitDx=0;exitDy=0;entryX=0;entryY=0.5;entryDx=0;entryDy=0;" edge="1" parent="1" source="V3oIw_tFHmD7RHKYPGYt-12" target="V3oIw_tFHmD7RHKYPGYt-21">
          <mxGeometry relative="1" as="geometry">
            <Array as="points">
              <mxPoint x="880" y="415" />
              <mxPoint x="880" y="360" />
              <mxPoint x="960" y="360" />
              <mxPoint x="960" y="265" />
            </Array>
          </mxGeometry>
        </mxCell>
        <mxCell id="V3oIw_tFHmD7RHKYPGYt-27" value="&lt;font style=&quot;font-size: 14px;&quot;&gt;Upsert&lt;/font&gt;" style="edgeLabel;html=1;align=center;verticalAlign=middle;resizable=0;points=[];" vertex="1" connectable="0" parent="V3oIw_tFHmD7RHKYPGYt-24">
          <mxGeometry x="0.4945" y="2" relative="1" as="geometry">
            <mxPoint x="-48" y="68" as="offset" />
          </mxGeometry>
        </mxCell>
        <mxCell id="V3oIw_tFHmD7RHKYPGYt-12" value="&lt;font style=&quot;font-size: 14px;&quot;&gt;Updates Outbound Stream Positions and writes received information.&lt;/font&gt;" style="rounded=0;whiteSpace=wrap;html=1;" vertex="1" parent="1">
          <mxGeometry x="497" y="395" width="330" height="80" as="geometry" />
        </mxCell>
        <mxCell id="V3oIw_tFHmD7RHKYPGYt-13" style="edgeStyle=orthogonalEdgeStyle;rounded=0;orthogonalLoop=1;jettySize=auto;html=1;exitX=0.5;exitY=1;exitDx=0;exitDy=0;entryX=0.5;entryY=0;entryDx=0;entryDy=0;" edge="1" parent="1" source="V3oIw_tFHmD7RHKYPGYt-14" target="V3oIw_tFHmD7RHKYPGYt-16">
          <mxGeometry relative="1" as="geometry" />
        </mxCell>
        <mxCell id="V3oIw_tFHmD7RHKYPGYt-26" style="edgeStyle=orthogonalEdgeStyle;rounded=0;orthogonalLoop=1;jettySize=auto;html=1;exitX=1;exitY=0.5;exitDx=0;exitDy=0;entryX=0;entryY=0.5;entryDx=0;entryDy=0;" edge="1" parent="1" source="V3oIw_tFHmD7RHKYPGYt-14" target="V3oIw_tFHmD7RHKYPGYt-25">
          <mxGeometry relative="1" as="geometry" />
        </mxCell>
        <mxCell id="V3oIw_tFHmD7RHKYPGYt-29" value="&lt;font style=&quot;font-size: 14px;&quot;&gt;Insert&lt;/font&gt;" style="edgeLabel;html=1;align=center;verticalAlign=middle;resizable=0;points=[];" vertex="1" connectable="0" parent="V3oIw_tFHmD7RHKYPGYt-26">
          <mxGeometry x="-0.1352" relative="1" as="geometry">
            <mxPoint as="offset" />
          </mxGeometry>
        </mxCell>
        <mxCell id="V3oIw_tFHmD7RHKYPGYt-14" value="&lt;font style=&quot;font-size: 14px;&quot;&gt;Using the DIM Tables + outbound WorkOrder information. Add entry to Snowflake WorkOrder table.&amp;nbsp;&lt;/font&gt;" style="rounded=0;whiteSpace=wrap;html=1;" vertex="1" parent="1">
          <mxGeometry x="497" y="530" width="330" height="80" as="geometry" />
        </mxCell>
        <mxCell id="V3oIw_tFHmD7RHKYPGYt-30" style="edgeStyle=orthogonalEdgeStyle;rounded=0;orthogonalLoop=1;jettySize=auto;html=1;exitX=0.25;exitY=1;exitDx=0;exitDy=0;entryX=0.5;entryY=0;entryDx=0;entryDy=0;" edge="1" parent="1" source="V3oIw_tFHmD7RHKYPGYt-16" target="V3oIw_tFHmD7RHKYPGYt-18">
          <mxGeometry relative="1" as="geometry">
            <Array as="points">
              <mxPoint x="580" y="760" />
              <mxPoint x="510" y="760" />
            </Array>
          </mxGeometry>
        </mxCell>
        <mxCell id="V3oIw_tFHmD7RHKYPGYt-32" style="edgeStyle=orthogonalEdgeStyle;rounded=0;orthogonalLoop=1;jettySize=auto;html=1;exitX=0.75;exitY=1;exitDx=0;exitDy=0;entryX=0.5;entryY=0;entryDx=0;entryDy=0;" edge="1" parent="1" source="V3oIw_tFHmD7RHKYPGYt-16" target="V3oIw_tFHmD7RHKYPGYt-31">
          <mxGeometry relative="1" as="geometry" />
        </mxCell>
        <mxCell id="V3oIw_tFHmD7RHKYPGYt-16" value="&lt;font style=&quot;font-size: 14px;&quot;&gt;New workorders are broadcasted to all&lt;br&gt;Data Collection Processor&lt;/font&gt;" style="rounded=0;whiteSpace=wrap;html=1;" vertex="1" parent="1">
          <mxGeometry x="497" y="660" width="330" height="80" as="geometry" />
        </mxCell>
        <mxCell id="V3oIw_tFHmD7RHKYPGYt-18" value="&lt;font style=&quot;font-size: 14px;&quot;&gt;Other registered Data collection processors.&lt;br&gt;Examples: Driver/Vehicle forecasting&lt;/font&gt;" style="rounded=0;whiteSpace=wrap;html=1;" vertex="1" parent="1">
          <mxGeometry x="390" y="780" width="240" height="80" as="geometry" />
        </mxCell>
        <mxCell id="V3oIw_tFHmD7RHKYPGYt-20" value="&lt;span style=&quot;font-size: 16px;&quot;&gt;&lt;b&gt;Snowflake Tables&lt;/b&gt;&lt;/span&gt;" style="html=1;whiteSpace=wrap;dashed=1;gradientColor=default;fillColor=none;labelPosition=center;verticalLabelPosition=middle;align=center;verticalAlign=top;" vertex="1" parent="1">
          <mxGeometry x="990" y="90" width="330" height="780" as="geometry" />
        </mxCell>
        <mxCell id="V3oIw_tFHmD7RHKYPGYt-19" value="Forecast Actual" style="whiteSpace=wrap;html=1;align=center;fontSize=14;" vertex="1" parent="1">
          <mxGeometry x="1055" y="795" width="200" height="50" as="geometry" />
        </mxCell>
        <mxCell id="V3oIw_tFHmD7RHKYPGYt-21" value="DIM Tables&lt;div&gt;Routes + Manifests + Packages&lt;/div&gt;" style="whiteSpace=wrap;html=1;align=center;fontSize=14;" vertex="1" parent="1">
          <mxGeometry x="1019.5" y="240" width="271" height="50" as="geometry" />
        </mxCell>
        <mxCell id="V3oIw_tFHmD7RHKYPGYt-22" value="Outbound stream positions" style="whiteSpace=wrap;html=1;align=center;fontSize=14;" vertex="1" parent="1">
          <mxGeometry x="1019.5" y="360" width="271" height="50" as="geometry" />
        </mxCell>
        <mxCell id="V3oIw_tFHmD7RHKYPGYt-25" value="Work Orders" style="whiteSpace=wrap;html=1;align=center;fontSize=14;" vertex="1" parent="1">
          <mxGeometry x="1019.5" y="545" width="271" height="50" as="geometry" />
        </mxCell>
        <mxCell id="V3oIw_tFHmD7RHKYPGYt-28" value="&lt;font style=&quot;font-size: 14px;&quot;&gt;Upsert&lt;/font&gt;" style="edgeLabel;html=1;align=center;verticalAlign=middle;resizable=0;points=[];" vertex="1" connectable="0" parent="1">
          <mxGeometry x="920" y="450" as="geometry">
            <mxPoint x="-12" y="7" as="offset" />
          </mxGeometry>
        </mxCell>
        <mxCell id="V3oIw_tFHmD7RHKYPGYt-33" style="edgeStyle=orthogonalEdgeStyle;rounded=0;orthogonalLoop=1;jettySize=auto;html=1;exitX=1;exitY=0.5;exitDx=0;exitDy=0;entryX=0;entryY=0.5;entryDx=0;entryDy=0;" edge="1" parent="1" source="V3oIw_tFHmD7RHKYPGYt-31" target="V3oIw_tFHmD7RHKYPGYt-19">
          <mxGeometry relative="1" as="geometry" />
        </mxCell>
        <mxCell id="V3oIw_tFHmD7RHKYPGYt-34" value="&lt;font style=&quot;font-size: 14px;&quot;&gt;Upsert&lt;/font&gt;" style="edgeLabel;html=1;align=center;verticalAlign=middle;resizable=0;points=[];" vertex="1" connectable="0" parent="V3oIw_tFHmD7RHKYPGYt-33">
          <mxGeometry x="-0.3778" y="2" relative="1" as="geometry">
            <mxPoint x="8" y="2" as="offset" />
          </mxGeometry>
        </mxCell>
        <mxCell id="V3oIw_tFHmD7RHKYPGYt-31" value="&lt;span style=&quot;font-size: 14px;&quot;&gt;Forecast Data Processor&lt;/span&gt;" style="rounded=0;whiteSpace=wrap;html=1;" vertex="1" parent="1">
          <mxGeometry x="680" y="780" width="240" height="80" as="geometry" />
        </mxCell>
      </root>
    </mxGraphModel>
  </diagram>
</mxfile>
